<?xml version="1.0" standalone="no"?>
<!DOCTYPE svg PUBLIC "-//W3C//DTD SVG 20010904//EN"
 "http://www.w3.org/TR/2001/REC-SVG-20010904/DTD/svg10.dtd">
<svg version="1.0" xmlns="http://www.w3.org/2000/svg"
 width="160.000000pt" height="160.000000pt" viewBox="0 0 160.000000 160.000000"
 preserveAspectRatio="xMidYMid meet">
<metadata>
Created by potrace 1.14, written by Peter Selinger 2001-2017
</metadata>
<g transform="translate(0.000000,160.000000) scale(0.100000,-0.100000)"
fill="#000000" stroke="none">
<path d="M138 1574 c-3 -5 -5 -359 -5 -786 l0 -777 21 11 c12 6 194 113 406
238 212 125 497 293 633 374 137 80 253 146 258 146 29 0 -7 27 -143 107 -84
49 -367 216 -628 370 -261 154 -486 286 -500 294 -14 8 -28 18 -31 23 -4 4 -9
4 -11 0z m545 -559 c191 -114 346 -209 345 -211 -13 -12 -692 -414 -694 -411
-8 7 -14 838 -6 834 4 -2 163 -98 355 -212z"/>
</g>
</svg>
